# xmcd
#
# Track frame offsets: 
#        210
#        10397
#        21422
#        33567
#        47257
#        57087
#        66905
#        77860
#        89197
#        100215
#        112150
#        127652
#        140627
#        153355
#
# Disc length: 2182 seconds
#
# Revision: 2
# Processed by: cddbd v1.5.1PL2 Copyright (c) Steve Scherf et al.
# Submitted via: ExactAudioCopy v0.95b2
#
DISCID=be08840e
DTITLE=Various Artist - Memories of Times Square Record Shop Volume 2
DYEAR=1900
DGENRE=Doo Wop
TTITLE0=The Capris - There's a Moon Out Tonight
TTITLE1=The Cordovans/ Come On Baby
TTITLE2=The Deltairs/ Lullaby of the Bells
TTITLE3=The Wheels -  My Hearts Desire
TTITLE4=The Monarchs - Pretty Little Girl
TTITLE5=The Pyramids - Ankle Bracelet
TTITLE6=The Hemlocks - Cora Lee
TTITLE7=The Shells - Baby Oh Baby
TTITLE8=The Willows - Church Bells May Ring
TTITLE9=The Roulettes - I See a Star
TTITLE10=The Jesters - The Wind
TTITLE11=The Kodaks - Teenager's Dream
TTITLE12=The Rocketones - Mexico
TTITLE13=The Imaginations - Goodnight Baby
EXTD=
EXTT0=
EXTT1=
EXTT2=
EXTT3=
EXTT4=
EXTT5=
EXTT6=
EXTT7=
EXTT8=
EXTT9=
EXTT10=
EXTT11=
EXTT12=
EXTT13=
PLAYORDER=
